<mxfile host="app.diagrams.net" modified="2023-11-30T16:24:32.024Z" agent="Mozilla/5.0 (Windows NT 10.0; Win64; x64) AppleWebKit/537.36 (KHTML, like Gecko) Chrome/119.0.0.0 Safari/537.36" version="22.1.5" etag="u-5LJSTg0zIEKaUSl7Fg" type="github">
  <diagram name="Page-1" id="yUeeJrl_fOY3BKLKQRRg">
    <mxGraphModel>
      <root>
        <mxCell id="0" />
        <mxCell id="1" parent="0" />
      </root>
    </mxGraphModel>
  </diagram>
</mxfile>
